<?xml version="1.0" encoding="UTF-8"?>
<svg xmlns="http://www.w3.org/2000/svg" width="121" height="49" viewBox="0 0 121 49" fill="none">
  <path d="M9.11635 41.0363C9.11635 46.8345 13.6321 48.1261 15.6775 48.416V7.45874C15.6775 7.16882 15.5447 0 8.16007 0H5.6897C9.03666 2.71467 9.08979 7.37968 9.08979 7.45874V41.0363H9.11635Z" fill="#040435"></path>
  <path d="M6.99178 7.45878C6.99178 1.60774 2.44947 0.369018 0.430664 0.0791016V41.0099C0.430664 46.8082 4.94641 48.0998 6.99178 48.3897V7.45878Z" fill="#040435"></path>
  <path d="M45.2957 33.5508H17.6965V40.0607H37.858C43.755 40.0343 45.0035 35.5538 45.2957 33.5508ZM37.858 41.9846H17.6965V48.4945H37.858C38.1502 48.4945 45.3754 48.3628 45.3754 41.0359V38.5847C42.6394 41.9319 37.9111 41.9846 37.858 41.9846Z" fill="#040435"></path>
  <path d="M37.3269 10.1737L34.4315 5.27153V10.2001H32.4924V0.764648H34.4315V5.06068L37.141 0.764648H39.4785L36.4503 5.1134L39.8239 10.1737H37.3269Z" fill="#575756"></path>
  <path d="M46.146 9.88279C45.5616 10.1991 45.0304 10.3045 44.26 10.3045C42.8256 10.3045 41.8959 9.90914 41.1787 8.98669C40.4615 8.06422 40.0896 6.87821 40.0896 5.48134C40.0896 3.45193 40.8599 1.81785 42.2412 1.07989C42.799 0.78997 43.4897 0.631836 44.2069 0.631836C46.7304 0.631836 48.2976 2.4504 48.2976 5.40226C48.2445 7.5371 47.5007 9.14482 46.146 9.88279ZM45.8007 3.2938C45.6413 2.81938 45.1366 2.10777 44.1272 2.10777C43.4897 2.10777 42.9319 2.42404 42.6397 2.92481C42.3209 3.531 42.1615 4.34804 42.1615 5.50769C42.1615 7.14177 42.4272 8.14329 43.0116 8.56499C43.3037 8.77584 43.7022 8.88126 44.1538 8.88126C45.4819 8.88126 46.0398 7.87973 46.0398 5.48134C46.0663 4.50617 45.9601 3.82092 45.8007 3.2938Z" fill="#575756"></path>
  <path d="M54.301 10.1737L52.6807 6.56297C52.1494 5.37696 51.565 4.05916 51.4057 3.47932C51.4853 4.24364 51.4853 5.3506 51.5119 6.14128L51.565 10.1737H49.7322V0.764648H51.8572L53.6635 4.53356C54.1417 5.53509 54.5136 6.53661 54.6995 7.19552C54.6198 6.45755 54.5667 5.27153 54.5401 4.61263L54.487 0.764648H56.2933V10.1737H54.301Z" fill="#575756"></path>
  <path d="M63.0941 2.29329H60.0925V4.45449H62.5097V6.00949H60.0925V10.2001H58.1799V0.764648H63.3332L63.0941 2.29329Z" fill="#575756"></path>
  <path d="M64.103 10.1737V0.764648H69.5219L69.2829 2.31965H66.0421V4.48085H68.7516V6.03585H66.0687V8.56602H69.6547V10.2001H64.103V10.1737Z" fill="#575756"></path>
  <path d="M76.8 8.77688C76.2156 9.5412 75.3921 10.0683 74.489 10.121C74.1436 10.1474 73.6921 10.1737 73.1342 10.1737H70.8232V0.764648H72.7358C73.2936 0.764648 74.0108 0.791006 74.3827 0.817363C75.1796 0.896435 75.8968 1.18635 76.4546 1.73983C77.3312 2.58321 77.7562 3.7956 77.7562 5.48237C77.7562 6.80017 77.4375 7.90713 76.8 8.77688ZM75.1265 3.03127C74.8077 2.50415 74.3827 2.24059 73.6124 2.24059H72.7358V8.61874H73.7718C75.0202 8.61874 75.6046 7.66992 75.6046 5.66687C75.6046 4.58628 75.5249 3.66381 75.1265 3.03127Z" fill="#575756"></path>
  <path d="M79.2168 10.1737V0.764648H84.6357L84.3966 2.31965H81.1559V4.48085H83.8654V6.03585H81.1825V8.56602H84.7685V10.2001H79.2168V10.1737Z" fill="#575756"></path>
  <path d="M90.5595 10.1737C90.1877 9.5412 90.0283 9.30399 89.683 8.61874C88.7532 6.93196 88.461 6.45754 88.1157 6.32577C88.0095 6.27305 87.9298 6.2467 87.8235 6.2467V10.1737H85.9641V0.764648H89.497C91.1705 0.764648 92.2861 1.8716 92.2861 3.53204C92.2861 4.9289 91.3564 6.11492 90.1611 6.14128C90.347 6.29941 90.4267 6.37848 90.5595 6.53661C91.1174 7.22186 92.844 10.2001 92.844 10.2001H90.5595V10.1737ZM89.5767 2.42508C89.3642 2.34601 88.9657 2.29329 88.4876 2.29329H87.797V4.84984H88.4345C89.2579 4.84984 89.6033 4.77076 89.8689 4.53356C90.108 4.32272 90.2408 3.98008 90.2408 3.58474C90.2408 2.97856 90.0283 2.58321 89.5767 2.42508Z" fill="#575756"></path>
  <path d="M98.9272 10.1728L98.2631 7.93249H95.4739L94.8099 10.1728H92.8176L95.9255 0.737305H97.9974L100.999 10.1728H98.9272ZM97.2537 4.47986C97.1474 4.05816 96.8818 2.81943 96.8818 2.81943C96.8818 2.81943 96.6162 3.92638 96.4302 4.63799C96.2443 5.32324 96.138 5.7713 95.9255 6.37748H97.7849C97.7849 6.37748 97.4662 5.37596 97.2537 4.47986Z" fill="#575756"></path>
  <path d="M105.595 10.3318C104.293 10.3318 103.284 9.91009 102.487 9.04034C101.716 8.19695 101.344 7.03729 101.344 5.66678C101.344 4.48075 101.557 3.55829 101.982 2.74126C102.726 1.37074 104.08 0.553711 105.621 0.553711C106.551 0.553711 107.507 0.843622 108.012 1.29168L107.162 2.58313C106.684 2.24049 106.179 2.05601 105.648 2.05601C105.01 2.05601 104.373 2.37228 104.027 2.87304C103.655 3.42651 103.496 4.19083 103.496 5.29779C103.496 6.58923 103.602 7.30085 103.895 7.82797C104.266 8.51322 104.904 8.88221 105.727 8.88221C106.285 8.88221 106.79 8.72407 107.348 8.27602L108.224 9.46203C107.481 10.0682 106.684 10.3318 105.595 10.3318Z" fill="#575756"></path>
  <path d="M111.306 10.2001C111.04 11.3598 109.951 12.0714 109.101 12.414L108.225 11.4388C108.729 11.1489 109.154 10.6745 109.34 10.3055C109.5 9.96289 109.526 9.59391 109.526 8.56602V0.764648H111.465V8.35518C111.439 9.56756 111.386 9.80476 111.306 10.2001Z" fill="#575756"></path>
  <path d="M118.372 10.1728L117.708 7.93249H114.919L114.254 10.1728H112.262L115.344 0.737305H117.415L120.417 10.1728H118.372ZM116.698 4.47986C116.592 4.05816 116.326 2.81943 116.326 2.81943C116.326 2.81943 116.061 3.92638 115.875 4.63799C115.689 5.32324 115.583 5.7713 115.37 6.37748H117.23C117.23 6.37748 116.911 5.37596 116.698 4.47986Z" fill="#575756"></path>
  <path d="M37.4865 26.0663H32.4661V16.6572H34.4052V24.5114H37.8053L37.4865 26.0663Z" fill="#575756"></path>
  <path d="M38.8142 26.0663V16.6572H44.2331L43.994 18.2122H40.7533V20.3998H43.4628V21.9548H40.7799V24.4849H44.3659V26.119H38.8142V26.0663Z" fill="#575756"></path>
  <path d="M53.6371 26.1453H51.5386L50.6886 22.3238C50.423 21.0587 50.2636 19.8463 50.237 19.5827C50.237 19.5827 50.0776 20.9006 49.7854 22.2975L48.9885 26.1453H46.8104L44.5525 16.6572H46.5713L47.3948 20.3734C47.7666 22.1393 47.8995 23.4834 47.8995 23.4834C47.9526 23.1145 48.112 21.7703 48.4042 20.4789L49.2542 16.6836H51.3527L52.2293 20.9006C52.4152 21.7703 52.6277 23.4044 52.6277 23.4044C52.6543 23.1145 52.9465 21.1905 53.159 20.268L53.9293 16.6836H55.9481L53.6371 26.1453Z" fill="#575756"></path>
  <path d="M56.8516 26.0663V16.6572H58.8438V26.0663H56.8516Z" fill="#575756"></path>
  <path d="M65.776 26.0663L65.112 23.8261H62.3228L61.6587 26.0663H59.6665L62.7744 16.6309H64.8463L67.848 26.0663H65.776ZM64.1026 20.3471C63.9963 19.9254 63.7307 18.6867 63.7307 18.6867C63.7307 18.6867 63.465 19.7936 63.2791 20.5052C63.0932 21.1905 62.9869 21.6385 62.7744 22.2446H64.6338C64.6338 22.2446 64.3151 21.2695 64.1026 20.3471Z" fill="#575756"></path>
  <path d="M74.3292 18.2122H72.0714V26.0663H70.1321V18.2122H67.7947V16.6309H74.6214L74.3292 18.2122Z" fill="#575756"></path>
  <path d="M80.3327 26.0663L79.6686 23.8261H76.8795L76.2154 26.0663H74.2231L77.331 16.6309H79.403L82.4046 26.0663H80.3327ZM78.6858 20.3471C78.5795 19.9254 78.3139 18.6867 78.3139 18.6867C78.3139 18.6867 78.0482 19.7936 77.8623 20.5052C77.6764 21.1905 77.5701 21.6385 77.3576 22.2446H79.217C79.1905 22.2446 78.8983 21.2695 78.6858 20.3471Z" fill="#575756"></path>
  <path d="M87.7971 26.0663L86.1767 22.4556C85.6455 21.2695 85.0611 19.9518 84.9017 19.3719C84.9814 20.1362 84.9814 21.2432 85.008 22.0339L85.0611 26.0663H83.2017V16.6572H85.3267L87.133 20.4261C87.6112 21.4276 87.983 22.4292 88.169 23.088C88.0893 22.3501 88.0362 21.1642 88.0096 20.5052L87.9565 16.6572H89.7628V26.0663H87.7971Z" fill="#575756"></path>
</svg>
