<?xml version="1.0" encoding="UTF-8"?>
<svg xmlns="http://www.w3.org/2000/svg" width="96" height="57" viewBox="0 0 96 57" fill="none">
  <path fill-rule="evenodd" clip-rule="evenodd" d="M4.49608 8.49173C5.79368 8.49173 6.53492 8.43044 7.09127 8.12341C7.68802 7.7931 8.01683 7.23863 8.01683 6.49914C8.01683 5.65635 7.64649 5.06158 6.96783 4.75228C6.36994 4.48554 5.5667 4.44525 4.41302 4.44525H3.30088V8.49173H4.49608ZM0.0275879 1.58887H4.45455C6.22602 1.58887 7.70793 1.75402 8.88208 2.37036C10.1797 3.04799 11.2918 4.32039 11.2918 6.33398C11.2918 8.1637 10.4072 9.47867 9.15059 10.2176C7.99692 10.8952 6.51444 11.1427 4.33167 11.1427H3.30088V16.4638H0.0275879V1.58887Z" fill="#0E2240"></path>
  <path fill-rule="evenodd" clip-rule="evenodd" d="M17.794 13.9994C19.2151 13.9994 20.3073 12.8479 20.3073 11.4098C20.3073 9.97222 19.2151 8.8207 17.794 8.8207C16.3735 8.8207 15.2824 9.97222 15.2824 11.4098C15.2824 12.8479 16.3735 13.9994 17.794 13.9994ZM17.794 6.12891C21.028 6.12891 23.4378 8.43081 23.4378 11.4098C23.4378 14.3893 21.028 16.6906 17.794 16.6906C14.5617 16.6906 12.1514 14.3893 12.1514 11.4098C12.1514 8.43081 14.5617 6.12891 17.794 6.12891Z" fill="#0E2240"></path>
  <mask id="mask0_3444_2740" style="mask-type:alpha" maskUnits="userSpaceOnUse" x="0" y="0" width="96" height="57">
    <path d="M0 56.0263H96V0.767578H0V56.0263Z" fill="white"></path>
  </mask>
  <g mask="url(#mask0_3444_2740)">
    <path fill-rule="evenodd" clip-rule="evenodd" d="M25.3882 16.4638H28.5181V0.767578H25.3882V16.4638Z" fill="#0E2240"></path>
    <path fill-rule="evenodd" clip-rule="evenodd" d="M30.8226 13.1146C32.2232 13.9381 33.8496 14.2854 34.8178 14.2854C35.6831 14.2854 36.1973 14.0607 36.1973 13.5062C36.1973 12.7247 35.0653 12.807 33.5413 12.416C31.6259 11.9438 30.4927 11.143 30.4927 9.47904C30.5137 7.34229 32.4081 6.12891 34.9208 6.12891C36.1359 6.12891 37.6383 6.37635 38.7925 6.93139V9.62262C37.454 8.8627 35.8884 8.5341 34.9822 8.5341C34.1585 8.5341 33.6641 8.77984 33.6641 9.25259C33.6641 9.99322 34.7552 9.93022 36.2593 10.3008C38.1946 10.773 39.3694 11.5136 39.3694 13.2582C39.3483 15.4778 37.4124 16.6906 34.8178 16.6906C33.6027 16.6906 32.0377 16.4432 30.8226 15.8479V13.1146Z" fill="#0E2240"></path>
    <path fill-rule="evenodd" clip-rule="evenodd" d="M41.2808 0.767578H44.4101V10.6284L44.4517 10.6494L47.994 6.35548H51.5563L47.6851 10.8764L51.8447 16.4638H48.1385L44.4517 11.3077L44.4101 11.327V16.4638H41.2808V0.767578Z" fill="#0E2240"></path>
    <path fill-rule="evenodd" clip-rule="evenodd" d="M53.2403 16.4633H56.3702V6.35446H53.2403V16.4633ZM54.8047 1.36133C55.7934 1.36133 56.6177 2.16382 56.6177 3.14848C56.6177 4.13541 55.7934 4.93733 54.8047 4.93733C53.8171 4.93733 52.9934 4.13541 52.9934 3.14848C52.9934 2.16382 53.8171 1.36133 54.8047 1.36133Z" fill="#0E2240"></path>
    <path fill-rule="evenodd" clip-rule="evenodd" d="M65.5938 10.259C65.409 9.16876 64.6057 8.51212 63.596 8.51212C62.6283 8.51212 61.7841 9.10746 61.5162 10.259H65.5938ZM61.5366 12.2306C61.8865 13.6278 63.0407 14.2652 64.4817 14.2652C65.6149 14.2652 66.8499 13.8736 67.9211 13.1557V15.7646C66.933 16.3809 65.4089 16.6897 64.0698 16.6897C60.734 16.6897 58.3242 14.6148 58.3242 11.4491C58.3242 8.22439 60.8375 6.12793 63.6381 6.12793C66.1291 6.12793 68.4769 7.7732 68.4769 11.1631C68.4769 11.5121 68.4564 11.9633 68.4154 12.2306H61.5366Z" fill="#0E2240"></path>
    <path fill-rule="evenodd" clip-rule="evenodd" d="M0.0273438 21.7305H9.47972V24.5868H3.3012V27.7906H8.61504V30.5033H3.3012V36.6054H0.0273438V21.7305Z" fill="#0E2240"></path>
    <path fill-rule="evenodd" clip-rule="evenodd" d="M15.9825 34.1414C17.4035 34.1414 18.4958 32.9899 18.4958 31.5524C18.4958 30.1142 17.4035 28.9627 15.9825 28.9627C14.562 28.9627 13.4709 30.1142 13.4709 31.5524C13.4709 32.9899 14.562 34.1414 15.9825 34.1414ZM15.9825 26.2715C19.2165 26.2715 21.6263 28.5728 21.6263 31.5524C21.6263 34.5313 19.2165 36.8326 15.9825 36.8326C12.7496 36.8326 10.3398 34.5313 10.3398 31.5524C10.3398 28.5728 12.7496 26.2715 15.9825 26.2715Z" fill="#0E2240"></path>
    <path fill-rule="evenodd" clip-rule="evenodd" d="M23.5779 26.4972H26.6458V27.8524L26.6873 27.8734C27.3876 26.8871 28.3757 26.374 29.6324 26.374C29.8377 26.374 30.0647 26.395 30.2911 26.4569V29.3938C30.0437 29.332 29.7348 29.2917 29.4464 29.2917C28.3553 29.2917 27.4491 29.6203 26.7072 30.4818V36.606H23.5779V26.4972Z" fill="#0E2240"></path>
    <path fill-rule="evenodd" clip-rule="evenodd" d="M38.5246 35.6394C37.7419 36.317 36.7537 36.8318 35.4351 36.8318C34.2621 36.8318 33.3758 36.4209 32.7995 35.8239C32.1402 35.1462 31.8313 34.2212 31.8313 32.7217V26.4971H34.9612V32.2496C34.9612 32.9885 35.0852 33.4209 35.3532 33.7087C35.6206 34.0157 36.0318 34.1599 36.4653 34.1599C37.2475 34.1599 38.0303 33.7297 38.5246 33.2558V26.4971H41.6546V36.6053H38.565V35.6604L38.5246 35.6394Z" fill="#0E2240"></path>
    <path fill-rule="evenodd" clip-rule="evenodd" d="M57.3835 30.7689C57.3835 30.009 57.2606 29.66 57.0138 29.3926C56.7248 29.0856 56.3539 28.9608 55.9426 28.9608C55.2207 28.9608 54.48 29.3314 53.9441 29.8035C53.9652 29.9477 53.9652 30.1128 53.9652 30.257V36.6048H50.8347V30.7689C50.8347 30.0918 50.7323 29.681 50.4638 29.3926C50.1759 29.0856 49.8044 28.9608 49.3926 28.9608C48.6724 28.9608 47.9306 29.3524 47.4157 29.7842V36.6048H44.2864V26.4965H47.3754V27.4001L47.4157 27.4216C48.1985 26.7627 49.2282 26.2695 50.4638 26.2695C51.5554 26.2695 52.8121 26.7014 53.4094 27.7088C54.5005 26.7417 55.6951 26.2695 56.9717 26.2695C58.1043 26.2695 58.99 26.6611 59.5868 27.2775C60.2256 27.9341 60.514 28.8183 60.514 30.257V36.6048H57.3835V30.7689Z" fill="#0E2240"></path>
    <path fill-rule="evenodd" clip-rule="evenodd" d="M68 21.7305H71.2744V27.4835H77.7209V21.7305H80.9947V36.6054H77.7209V30.3393H71.2744V36.6054H68V21.7305Z" fill="#0E2240"></path>
    <path fill-rule="evenodd" clip-rule="evenodd" d="M88.6281 28.2837C89.5138 28.2837 90.1936 28.1816 90.688 27.9347C91.2443 27.6464 91.5316 27.1549 91.5316 26.4353C91.5316 25.7367 91.2847 25.2855 90.688 24.9762C90.1726 24.7094 89.3705 24.5863 88.2373 24.5863H86.9806V28.2837H88.6281ZM83.7068 21.7305H88.3806C90.1527 21.7305 91.82 21.9762 93.0147 22.7168C94.1063 23.3945 94.8066 24.504 94.8066 26.2088C94.8066 28.1209 93.7565 29.6816 91.7791 30.3183L95.9808 36.6054H92.212L88.4426 30.7298H86.9806V36.6054H83.7068V21.7305Z" fill="#0E2240"></path>
    <path fill-rule="evenodd" clip-rule="evenodd" d="M11.5993 41.877L3.28296 48.9376V42.1011H0V56.026L12.8082 45.1516H96V41.877H11.5993Z" fill="#8C2866"></path>
  </g>
</svg>
